# xmcd CD database file
#
# Track frame offsets:
#	187
#	14134
#	35834
#	56077
#	77727
#	98564
#	116907
#	138817
#	151784
#	168924
#	186132
#
# Disc length: 2918 seconds
#
# Revision: 0
# Processed by: cddbd v1.5PL3 Copyright (c) Steve Scherf et al.
# Submitted via: CDex 1.50beta10
#
DISCID=8c0b640b
DTITLE=Yutaka - GROOVIN'
DYEAR=1900
DGENRE=R&B
TTITLE0=The Loser
TTITLE1=Catch the sky
TTITLE2=Groovin'
TTITLE3=What you gonna do
TTITLE4=Feel the power
TTITLE5=Stay with me
TTITLE6=Midnight Jam
TTITLE7=It's all right
TTITLE8=For you
TTITLE9=Take a walk
TTITLE10=Purple haze(Bonus track)
EXTD=
EXTT0=
EXTT1=
EXTT2=
EXTT3=
EXTT4=
EXTT5=
EXTT6=
EXTT7=
EXTT8=
EXTT9=
EXTT10=
PLAYORDER=
